<!DOCTYPE svg PUBLIC "-//W3C//DTD SVG 1.1//EN" "http://www.w3.org/Graphics/SVG/1.1/DTD/svg11.dtd">

<!-- Uploaded to: SVG Repo, www.svgrepo.com, Transformed by: SVG Repo Mixer Tools -->
<svg width="800px" height="800px" viewBox="-204.8 -204.8 1433.60 1433.60" xmlns="http://www.w3.org/2000/svg" fill="currentColor">

<g id="SVGRepo_bgCarrier" stroke-width="0"/>

<g id="SVGRepo_tracerCarrier" stroke-linecap="round" stroke-linejoin="round"/>

<g id="SVGRepo_iconCarrier">

<path fill="currentColor" d="M352 480h320a32 32 0 1 1 0 64H352a32 32 0 0 1 0-64z"/>

<path fill="currentColor" d="M480 672V352a32 32 0 1 1 64 0v320a32 32 0 0 1-64 0z"/>

<path fill="currentColor" d="M512 896a384 384 0 1 0 0-768 384 384 0 0 0 0 768zm0 64a448 448 0 1 1 0-896 448 448 0 0 1 0 896z"/>

</g>

</svg>