<!DOCTYPE svg PUBLIC "-//W3C//DTD SVG 1.1//EN" "http://www.w3.org/Graphics/SVG/1.1/DTD/svg11.dtd">

<!-- Uploaded to: SVG Repo, www.svgrepo.com, Transformed by: SVG Repo Mixer Tools -->
<svg width="800px" height="800px" viewBox="-204.8 -204.8 1433.60 1433.60" xmlns="http://www.w3.org/2000/svg" fill="currentColor">

<g id="SVGRepo_bgCarrier" stroke-width="0"/>

<g id="SVGRepo_tracerCarrier" stroke-linecap="round" stroke-linejoin="round"/>

<g id="SVGRepo_iconCarrier">

<path fill="currentColor" d="M256 128v698.88l196.032-156.864a96 96 0 0 1 119.936 0L768 826.816V128H256zm-32-64h576a32 32 0 0 1 32 32v797.44a32 32 0 0 1-51.968 24.96L531.968 720a32 32 0 0 0-39.936 0L243.968 918.4A32 32 0 0 1 192 893.44V96a32 32 0 0 1 32-32z"/>

</g>

</svg>