<!DOCTYPE svg PUBLIC "-//W3C//DTD SVG 1.1//EN" "http://www.w3.org/Graphics/SVG/1.1/DTD/svg11.dtd">

<!-- Uploaded to: SVG Repo, www.svgrepo.com, Transformed by: SVG Repo Mixer Tools -->
<svg width="800px" height="800px" viewBox="-204.8 -204.8 1433.60 1433.60" xmlns="http://www.w3.org/2000/svg" fill="currentColor">

<g id="SVGRepo_bgCarrier" stroke-width="0"/>

<g id="SVGRepo_tracerCarrier" stroke-linecap="round" stroke-linejoin="round"/>

<g id="SVGRepo_iconCarrier">

<path fill="currentColor" d="M128 224v512a64 64 0 0 0 64 64h640a64 64 0 0 0 64-64V224H128zm0-64h768a64 64 0 0 1 64 64v512a128 128 0 0 1-128 128H192A128 128 0 0 1 64 736V224a64 64 0 0 1 64-64z"/>

<path fill="currentColor" d="M904 224 656.512 506.88a192 192 0 0 1-289.024 0L120 224h784zm-698.944 0 210.56 240.704a128 128 0 0 0 192.704 0L818.944 224H205.056z"/>

</g>

</svg>