<!DOCTYPE svg PUBLIC "-//W3C//DTD SVG 1.1//EN" "http://www.w3.org/Graphics/SVG/1.1/DTD/svg11.dtd">

<!-- Uploaded to: SVG Repo, www.svgrepo.com, Transformed by: SVG Repo Mixer Tools -->
<svg width="800px" height="800px" viewBox="-204.8 -204.8 1433.60 1433.60" xmlns="http://www.w3.org/2000/svg" fill="currentColor">

<g id="SVGRepo_bgCarrier" stroke-width="0"/>

<g id="SVGRepo_tracerCarrier" stroke-linecap="round" stroke-linejoin="round"/>

<g id="SVGRepo_iconCarrier">

<path fill="currentColor" d="M784.512 230.272v-50.56a32 32 0 1 1 64 0v149.056a32 32 0 0 1-32 32H667.52a32 32 0 1 1 0-64h92.992A320 320 0 1 0 524.8 833.152a320 320 0 0 0 320-320h64a384 384 0 0 1-384 384 384 384 0 0 1-384-384 384 384 0 0 1 643.712-282.88z"/>

</g>

</svg>